<svg xmlns="http://www.w3.org/2000/svg" viewBox="0 0 100 120" width="200" height="240">
  <defs>
    <linearGradient id="grad-pin-outer" x1="0%" y1="0%" x2="0%" y2="100%">
      <stop offset="0%" style="stop-color:#40A0F0;stop-opacity:1" />
      <stop offset="100%" style="stop-color:#0066CC;stop-opacity:1" />
    </linearGradient>
    <linearGradient id="grad-pin-inner" x1="0%" y1="0%" x2="0%" y2="100%">
      <stop offset="0%" style="stop-color:#1E90FF;stop-opacity:1" />
      <stop offset="100%" style="stop-color:#0040A0;stop-opacity:1" />
    </linearGradient>
    <radialGradient id="grad-center-bg" cx="50%" cy="50%" r="50%" fx="50%" fy="50%">
      <stop offset="0%" style="stop-color:#FFFFFF;stop-opacity:0.95" />
      <stop offset="100%" style="stop-color:#F0F0F0;stop-opacity:1" />
    </radialGradient>
  </defs>

  <path d="M50 5 C30 5 15 21 15 41 C15 65 50 110 50 110 C50 110 85 65 85 41 C85 21 70 5 50 5Z" 
        fill="url(#grad-pin-outer)" stroke="#003366" stroke-width="2"/>

  <circle cx="50" cy="41" r="30" fill="#E6E6E6"/>

  <circle cx="50" cy="41" r="26" fill="url(#grad-center-bg)"/>

  <circle cx="50" cy="41" r="21" fill="url(#grad-pin-inner)"/>

  <rect x="42" y="30" width="16" height="24" rx="2" fill="white"/>
  <rect x="44" y="32" width="12" height="8" fill="#1B9CFC"/> <rect x="41" y="52" width="18" height="3" rx="1" fill="white"/>
  
  <path d="M40 33 L37 33 Q34 33 34 38 L34 47 Q34 52 38 52" fill="none" stroke="white" stroke-width="2.2" stroke-linecap="round"/>
  
  <text x="50" y="50" font-family="Arial, sans-serif" font-size="9" font-weight="bold" fill="#0066CC" text-anchor="middle">G</text>

</svg>
